<?xml version="1.0" encoding="UTF-8"?>
<svg width="24px" height="24px" viewBox="0 0 24 24" version="1.1" xmlns="http://www.w3.org/2000/svg" xmlns:xlink="http://www.w3.org/1999/xlink">
    <title>Meerdere kaartlagen 18dp </title>
    <g id="Meerdere-kaartlagen-18dp-" stroke="none" stroke-width="1" fill="none" fill-rule="evenodd">
        <path d="M15,3 C16.1045695,3 17,3.8954305 17,5 L17,15 C17,16.1045695 16.1045695,17 15,17 L5,17 C3.8954305,17 3,16.1045695 3,15 L3,5 C3,3.8954305 3.8954305,3 5,3 L15,3 Z M15,4.5 L5,4.5 C4.72385763,4.5 4.5,4.72385763 4.5,5 L4.5,15 C4.5,15.2761424 4.72385763,15.5 5,15.5 L15,15.5 C15.2761424,15.5 15.5,15.2761424 15.5,15 L15.5,5 C15.5,4.72385763 15.2761424,4.5 15,4.5 Z" id="Square" fill="#191919" fill-rule="nonzero"></path>
        <path d="M19,7 C20.1045695,7 21,7.8954305 21,9 L21,19 C21,20.1045695 20.1045695,21 19,21 L9,21 C7.8954305,21 7,20.1045695 7,19 L7,16 L8.5,16 L8.5,19 C8.5,19.2761424 8.72385763,19.5 9,19.5 L19,19.5 C19.2761424,19.5 19.5,19.2761424 19.5,19 L19.5,9 C19.5,8.72385763 19.2761424,8.5 19,8.5 L16,8.5 L16,7 L19,7 Z" id="Combined-Shape" fill="#191919" fill-rule="nonzero"></path>
    </g>
</svg>